<svg xmlns="http://www.w3.org/2000/svg" xmlns:xlink="http://www.w3.org/1999/xlink" viewBox="0 0 551.49 594.46" version="1.0"><defs><linearGradient id="d"><stop style="stop-color:#f2ae7e" offset="0"/><stop style="stop-color:#eda675" offset="1"/></linearGradient><linearGradient id="c"><stop style="stop-color:#eb8946;stop-opacity:.51923" offset="0"/><stop style="stop-color:#cb6926;stop-opacity:.77885" offset=".5"/><stop style="stop-color:#ff8e3f;stop-opacity:0" offset="1"/></linearGradient><linearGradient id="b"><stop style="stop-color:#5e710e;stop-opacity:.80784" offset="0"/><stop style="stop-color:#37400d" offset="1"/></linearGradient><linearGradient id="a"><stop style="stop-color:#576619" offset="0"/><stop style="stop-color:#8a0;stop-opacity:0" offset="1"/></linearGradient><linearGradient id="l" y2="389.21" xlink:href="#a" gradientUnits="userSpaceOnUse" x2="301.47" y1="301.41" x1="261.48"/><linearGradient id="k" y2="325.5" xlink:href="#c" gradientUnits="userSpaceOnUse" x2="263.6" gradientTransform="translate(.474 .18)" y1="256.06" x1="271.9"/><linearGradient id="h" y2="313.94" xlink:href="#c" gradientUnits="userSpaceOnUse" x2="271.25" gradientTransform="matrix(-1 0 0 1 694.98 -.96)" y1="262.98" x1="262.24"/><linearGradient id="n" y2="401.79" xlink:href="#c" gradientUnits="userSpaceOnUse" x2="368.4" gradientTransform="translate(-18.881 3.475)" y1="404.44" x1="348.86"/><linearGradient id="o" y2="399.09" xlink:href="#c" gradientUnits="userSpaceOnUse" x2="358.3" gradientTransform="rotate(-87.518 367.435 415.43)" y1="398.4" x1="370.4"/><linearGradient id="i" y2="367.03" xlink:href="#c" gradientUnits="userSpaceOnUse" x2="240.32" y1="383.85" x1="150.07"/><linearGradient id="j" y2="352.3" xlink:href="#c" gradientUnits="userSpaceOnUse" x2="240.32" y1="326.31" x1="153.22"/><linearGradient id="f" y2="349.68" xlink:href="#c" gradientUnits="userSpaceOnUse" x2="209.1" y1="354.44" x1="180.81"/><linearGradient id="g" y2="354.44" xlink:href="#d" gradientUnits="userSpaceOnUse" x2="209.1" y1="354.44" x1="180.81"/><radialGradient id="p" gradientUnits="userSpaceOnUse" cy="127.41" cx="283.53" gradientTransform="matrix(.35533 -.2001 1.1073 1.9663 40.382 -67.341)" r="27.917"><stop style="stop-color:white;stop-opacity:.79808" offset="0"/><stop style="stop-color:white;stop-opacity:.096154" offset="1"/></radialGradient><radialGradient id="m" xlink:href="#b" gradientUnits="userSpaceOnUse" cy="345.19" cx="275.99" gradientTransform="matrix(1 0 0 1.1057 0 -35.939)" r="14.166"/></defs><g transform="translate(-79.609 -70.251)"><path id="e" style="stroke:#000;stroke-width:.70866;fill:#784421" d="M200.39 177.94s-95.72 140.69-100.34 153.9c-4.613 13.22-17.776 44.33-19.589 55.49-1.812 11.16 1.764 93.53 3.63 87.83 8.616-32.27 21.689-79.2 21.689-79.2-1.97 31.55-1.72 55.25 3.24 84.63 0 0 5.36-28.89 9.69-37.4 4.34-8.52 14.83-54.83 14.83-54.83s-9.35 31.14-13.36 51.14 14.2 65.5 14.2 65.5 2.83-36.9 9.82-52.2c7-15.3 22.44-46.55 22.44-46.55-10.92 40.88-20.16 69.24-12.86 114.99 0 0 9.77-27.94 24.28-48.9s18.86-17.05 18.86-17.05-18.86 65.61-18.86 102.07c13.58-13.99 22.79-48.44 47.7-58.43 0 0-2.12 54.07-7.2 78.85 17-10.14 53.15-57.07 53.15-57.07 1.71 24.17-24.94 44.08-8 68.72l53.77-50.79 37.34 52.56v-50.1"/><use xlink:href="#e" transform="matrix(-1 0 0 1 710.71 1.044)" height="1052.362" width="744.094"/></g><g style="fill:url(#f)" transform="translate(-80.987 -66.685)"><path style="fill-rule:evenodd;stroke:#000;stroke-width:1.0433px;fill:url(#f)" d="M199.17 314.49s-3.73-14.67-8.35-16.06c-4.62-1.4-9.28 28.98-9.48 42.62-.13 8.34 13.97 69.55 21.89 69.44 7.91-.11 4.7-17.9 4.7-17.9"/><path style="fill-rule:evenodd;stroke:#000;stroke-linecap:round;stroke-width:.61855;fill:url(#f)" d="M191.73 379.01s.52 5.98 4.42 6.34c2.04.18 2.5-4.8 3-5.41"/><path style="fill-rule:evenodd;stroke:#000;stroke-width:.61855;fill:url(#f)" d="M195.85 328.46s-.75-18.29-4.65-17.91c-3.9.39-8.87 31.57-7.11 37"/><path style="fill-rule:evenodd;stroke:#000;stroke-linecap:round;stroke-width:.61855;fill:url(#f)" d="M195.36 357.67c-.9.53-2.36 3.43-1.98 5.29.41 1.98 1.53 3.11 2.7 3.78"/></g><path style="stroke:#000;stroke-width:1px;fill:#ffd7bc" d="M573.24 664.21c-24.34-2.01-72.07 1.58-102.4-31.42s-32.77-128.76-32.77-128.76l-167.78 1.08s.57 94.25-29.76 127.25-78.05 29.41-102.4 31.42" transform="translate(-79.609 -70.251)"/><g style="fill:url(#g)" transform="matrix(-1 0 0 1 632.541 -67.098)"><path style="fill-rule:evenodd;stroke:#000;stroke-width:1.0433px;fill:url(#g)" d="M199.17 314.49s-3.73-14.67-8.35-16.06c-4.62-1.4-9.28 28.98-9.48 42.62-.13 8.34 13.97 69.55 21.89 69.44 7.91-.11 4.7-17.9 4.7-17.9"/><path style="fill-rule:evenodd;stroke:#000;stroke-linecap:round;stroke-width:.61855;fill:url(#g)" d="M191.73 379.01s.52 5.98 4.42 6.34c2.04.18 2.5-4.8 3-5.41"/><path style="fill-rule:evenodd;stroke:#000;stroke-width:.61855;fill:url(#g)" d="M195.85 328.46s-.75-18.29-4.65-17.91c-3.9.39-8.87 31.57-7.11 37"/><path style="fill-rule:evenodd;stroke:#000;stroke-linecap:round;stroke-width:.61855;fill:url(#g)" d="M195.36 357.67c-.9.53-2.36 3.43-1.98 5.29.41 1.98 1.53 3.11 2.7 3.78"/></g><path style="stroke-linejoin:round;stroke:#000;stroke-linecap:round;stroke-width:.70866;fill:#ffd7bc" d="M514.24 344.83c0 63.47-16.03 102.43-52.7 137.27-44.41 42.19-86.25 73.92-105.88 74.47-19.07.54-78.31-43.42-117.59-77.44-38.24-33.12-43.09-70.85-41.46-134.3 3.98-154.95 71.15-229.97 158.82-229.97 87.66 0 157.72 76.58 158.81 229.97z" transform="translate(-79.609 -70.251)"/><path style="fill-rule:evenodd;fill:url(#h)" d="M403.21 302.76c-1.09-5.34-5.94-15.63-7.95-18.13 10.69-5.43-.29-.06 16.25-6.86 13.15-1.87 28.98 1.05 42.96 7.02 13.99 5.97 26 10.04 28.71 15.85 2.73 5.82-2.29 15.78-5.4 15.31s-19.43-14.57-33.21-19.75c-13.72-5.15-33.93 1.6-41.36 6.56z" transform="translate(-79.609 -70.251)"/><path style="fill-rule:evenodd;fill:url(#i)" d="m284.28 202.44-58.12.15c-17.41 36.06-28.02 83.4-29.54 142.25-1.62 63.45 3.2 101.17 41.44 134.28 8.35 7.24 17.64 14.93 27.22 22.54.35.18.91.5.91.5s-33.59-59.11-33.35-106.63c.25-47.63-2.84-64.42 6.44-108.5s45-84.59 45-84.59z" transform="translate(-79.609 -70.251)"/><path style="fill-rule:evenodd;fill:url(#j)" d="m284.28 202.44-58.12.15c-17.41 36.06-28.02 83.4-29.54 142.25-1.62 63.45 3.2 101.17 41.44 134.28 8.35 7.24 17.64 14.93 27.22 22.54.35.18.91.5.91.5s-33.59-59.11-33.35-106.63c.25-47.63-2.84-64.42 6.44-108.5s45-84.59 45-84.59z" transform="translate(-79.609 -70.251)"/><path style="fill-rule:evenodd;fill:url(#k)" d="M301.98 312.1c3.69-2.27 6.05 1.58 12.22 2.26-4.84-15.18-13.72-28.65-30.25-35.45-13.15-1.87-28.99 1.05-42.97 7.02s-30.08 14.44-31.73 16.7c-3.27 4.45-1.46 20.4 1.65 19.93 3.11-.46 26.2-20.04 39.99-25.22 13.72-5.15 47.81 3.4 51.09 14.76z" transform="translate(-79.609 -70.251)"/><path style="fill:#fff" transform="matrix(1.0741 0 0 2.074 -92.29 -426.008)" d="M308.63 333.94c-10.67 9.42-20.88 18.42-49.28 17.9-32.5-.6-47.38-12.56-48.43-23.58 12.52-4.51 20.49-13 48.43-13 27.93 0 40.82 12.28 49.28 18.68z"/><path style="fill:url(#l)" d="M307.67 335.85a33.807 38.47 0 1 1-67.62 0 33.807 38.47 0 1 1 67.62 0z" transform="translate(-86.128 -70.251)"/><path style="fill:url(#m)" d="M289.97 339.88a13.989 15.487 0 1 1-27.97 0 13.989 15.487 0 1 1 27.97 0z" transform="translate(-88.907 -74.413)"/><path style="stroke:#000;stroke-width:1px;fill:none" d="M278.48 295.88c-10.7-7-23.09-1.64-34.01 1.13" transform="translate(-71.865 -70.428)"/><path style="fill:#000" d="M255.69 295c-4.81-.24-9.74.03-14.23 1.92-4.97 1.8-11.85 6.53-16.43 9.18-2.25 1.26-10.14 6.15-12.61 8.49-2.48 2.35-10.2 7.88-10.1 8.55.44.72 4.82 18.06 5.3 18.58 1.49.05-.54 1.24 3.3 2.37-.26-5.43-5.27-18.47-4.29-18.99 4.1-2.84 30.47-21.17 35.07-23.02 3.85-1.5 7.84-2.79 12.02-2.73 7.83-.15 15.69.94 23.24 3.02 4.87 1.3 9.25 3.89 13.19 6.98 1.33.76 4.15 3.62 4.32 3.43-1.16-1.9-1.77-4.24-3.71-5.54-4.71-3.87-9.8-7.51-15.75-9.14-6.27-1.84-12.81-2.75-19.32-3.1z" transform="translate(-71.865 -70.428)"/><path style="fill:#fff" d="M261.99 325.18a10.743 8.103 0 1 1-21.49 0 10.743 8.103 0 1 1 21.49 0z" transform="matrix(.83098 .67164 -.67625 .8253 183.531 -189.301)"/><path style="fill:#fff" d="M261.99 325.18a10.743 8.103 0 1 1-21.49 0 10.743 8.103 0 1 1 21.49 0z" transform="matrix(.29668 -.16279 .1332 .30432 60.131 205.309)"/><path style="fill:#000" d="M487.17 301.99c1.24.75-1.75-3.1-2.24-3.81 1.3 4.42 4.71 6.42-1.04-.13.08.14 12.02 13.78-.3-.46 9.71 12.17 2.44 2.14.8-.22-1.54-1.65-3.42-2.85-5.35-4.17-3.41-2.51-7.2-4.41-11.2-6.12-5.66-2.62-11.16-5.46-16.76-8.17-5.27-2.26-10.86-3.65-16.54-4.9-6.9-.99-13.82-1.77-20.78-2.32-4.58-.77-7.18.99-10.6 2.95-2.37 2.13-5.21 3.78-8.09 5.35-1.97 1.33-.78 1.91-.69 3.97l.15.21c2.05 1.12 2.11 2.19 4.56 1.63 2.96-1.56 5.8-3.25 8.26-5.39 3.18-2.06 5.4-3.37 9.86-2.89 6.93.56 14.03.97 20.74 2.45 5.71 1.25 11.23 2.58 16.4 5.07 5.63 2.47 10.92 5.4 16.59 7.83 3.85 1.95 7.76 3.8 11.16 6.35 1.81 1.36 3.65 2.71 5.33 4.23-1.82-2.77-8.33-12.08 1.06-.18-8.28-9.65-4.07-4.73-.38-.42.03.02.06.04.09.05l-4.23-4.8c1.35 1.57 2.69 3.14 4.03 4.71-.13-.01-.53-.6-.78-.06-.67-.98-3.31-5.3-2.11-3.58l2.06 2.82z" transform="translate(-79.609 -70.251)"/><path style="stroke:#000;stroke-width:1.3535;fill:none" d="M233.42 364.29c3.69 5.72 17.97 9.21 32.55 9.98 14.57.77 16.91-.11 24-2.37" transform="translate(-79.609 -70.251)"/><path style="fill:#000" d="M208.22 302.62c-1.24.75 1.74-3.1 2.23-3.81-1.3 4.42-4.7 6.42 1.04-.13-.08.14-12.02 13.78.3-.46-9.7 12.18-2.43 2.14-.8-.22 1.54-1.65 3.42-2.85 5.35-4.16 3.42-2.52 7.2-4.42 11.2-6.13 5.66-2.62 11.16-5.46 16.76-8.17 5.28-2.25 10.86-3.65 16.54-4.9 6.9-.99 13.82-1.76 20.79-2.32 4.57-.77 7.17.99 10.6 2.95 2.37 2.14 5.21 3.78 8.09 5.35 1.96 1.33.77 1.91.68 3.97l-2.81 1.89c9.83 10.38 16.02 21.95 16.62 28.02-.67.2.08-.11-.95-.09-.24-7.13-7.95-18.18-17.41-27.97-3.18-2.06-13.82-8.77-18.28-8.28-6.93.55-14.03.96-20.74 2.44-5.71 1.25-11.23 2.58-16.4 5.07-5.62 2.47-10.92 5.4-16.59 7.83-3.84 1.96-7.75 3.8-11.16 6.35-1.81 1.36-3.65 2.72-5.32 4.23 1.81-2.77 8.32-12.08-1.06-.18 8.28-9.65 4.06-4.73.37-.42l-.09.06c1.41-1.61 2.82-3.21 4.23-4.81-1.34 1.57-2.68 3.14-4.03 4.71.13-.01.54-.6.79-.05.67-.99 3.31-5.31 2.11-3.59l-2.06 2.82z" transform="translate(-79.609 -70.251)"/><path style="fill:#fff" transform="matrix(-1.0741 0 0 2.074 629.495 -426.441)" d="M308.63 333.94c-10.67 9.42-20.88 18.42-49.28 17.9-32.5-.6-47.38-12.56-48.43-23.58 12.52-4.51 20.49-13 48.43-13 27.93 0 40.82 12.28 49.28 18.68z"/><path style="fill:url(#l)" d="M307.67 335.85a33.807 38.47 0 1 1-67.62 0 33.807 38.47 0 1 1 67.62 0z" transform="matrix(-1 0 0 1 623.334 -70.684)"/><path style="fill:url(#m)" d="M289.97 339.88a13.989 15.487 0 1 1-27.97 0 13.989 15.487 0 1 1 27.97 0z" transform="matrix(-1 0 0 1 626.113 -74.846)"/><path style="fill:#000" d="M255.69 295c-4.81-.24-9.74.03-14.23 1.92-4.97 1.8-11.85 6.53-16.43 9.18-2.25 1.26-10.14 6.15-12.61 8.49-2.48 2.35-10.2 7.88-10.1 8.55.44.72 4.82 18.06 5.3 18.58 1.49.05-.54 1.24 3.3 2.37-.26-5.43-5.27-18.47-4.29-18.99 4.1-2.84 30.47-21.17 35.07-23.02 3.85-1.5 7.84-2.79 12.02-2.73 7.83-.15 15.69.94 23.24 3.02 4.87 1.3 9.25 3.89 13.19 6.98 1.33.76 4.15 3.62 4.32 3.43-1.16-1.9-1.77-4.24-3.71-5.54-4.71-3.87-9.8-7.51-15.75-9.14-6.27-1.84-12.81-2.75-19.32-3.1z" transform="matrix(-1 0 0 1 609.071 -70.861)"/><path style="stroke:#000;stroke-width:1px;fill:none" d="M278.48 295.88c-10.7-7-23.09-1.64-34.01 1.13" transform="matrix(-1 0 0 1 609.071 -70.861)"/><path style="stroke:#000;stroke-width:1.3535;fill:none" d="M468.19 361.15c-3.69 5.72-25.22 11.64-39.8 12.41-14.57.77-20.63-3.7-27.72-5.95" transform="translate(-79.609 -70.251)"/><g><path style="fill-rule:evenodd;fill:url(#n)" d="M336.78 401.51s.53-4.1 2.67-6.56c2.31-2.66 3-3.15 5.15-3.91 3.04.75-6.48 12.67-5.67 18.65.8 5.97 7.53 7.13 7.53 7.13s-14.22 1.82-15.09-4.31c-.93-6.54 5.41-11 5.41-11z" transform="translate(-79.397 -68.782)"/><path style="fill-rule:evenodd;fill:url(#o)" d="M339.68 417.07c3.93-1.72 14.1 2.23 22.35-.13 8.27-2.37 11.16-.79 10.52 3.03-.65 3.89-10.58 3.04-16.71 4.47-4.98-1.05-11.88-5.88-16.16-7.37z" transform="translate(-79.397 -68.782)"/><path style="stroke-linejoin:round;stroke:#000;stroke-linecap:round;stroke-width:1.4173;fill:none" d="M345.91 392.36s-7.56 11.02-6.76 17c.81 5.97 8.28 7.68 8.28 7.68s-13.34 1.18-14.21-4.95c-.93-6.54 3.6-10.35 3.6-10.35" transform="translate(-79.397 -68.782)"/><path style="stroke:#000;stroke-linecap:round;stroke-width:1.4173;fill:none" d="M362.54 417.17c2.71-.78 7.15-1.53 9.3.03" transform="translate(-79.397 -68.782)"/></g><path style="stroke:#000;stroke-width:1px;fill:none" d="M304.41 450.23c.46 1.29-.76.94-1.05 2.72 21.51 8.27 74.64 11.02 101.6.23l-.83-2.22" transform="translate(-79.609 -70.251)"/><path style="stroke:#000;stroke-width:1.3535;fill:none" d="M348.08 508.85c3.82 1.88 8.01 3.06 14.18 1.02" transform="translate(-79.609 -70.251)"/><path style="fill:#fff" d="M261.99 325.18a10.743 8.103 0 1 1-21.49 0 10.743 8.103 0 1 1 21.49 0z" transform="matrix(.4931 .94788 -.94984 .48605 519.881 -149.752)"/><g transform="translate(-79.609 -70.251)"><g id="q"><path style="stroke:#000;stroke-width:1px;fill:none" d="M324.75 174.78c6.86 1.3 22.68 10.67 30.29 17.84M312.42 186.5c11.63-2.41 35.15 3.95 42.51 10.19M323.45 139.59c11.09-1.96 31.48 13.43 31.48 13.43"/><path style="stroke:#000;stroke-width:1px;fill:#784421" d="M354.82 96.043C342.17 80.04 329.53 70.464 312 70.418c-13.63-.036-30.2 5.701-52.03 18.593-24.42 14.429-56.51 50.129-68.65 64.479-12.14 14.36-39.41 34.92-50.72 48.83-12.49 15.36-32.63 60.79-35.52 76.97-2.89 16.17-3.09 65.06 9.52 71.68 10.7-24.46 6.74-45.56 19.37-66.29-2.53 20.13 2.36 50.38 3.25 64.15 7.19-38.17 34.85-90.72 34.85-90.72s-11.27 64.58-1.87 86.99c11.67-32.55 48.53-98.2 58.07-105.59 6.22-4.81 19.17-27.34 51.45-38.09 32.29-10.76 75.1 0 75.1 0m-220.85 83.26s10.22-27.03 24.45-39.05c8.48-7.16 14.09-20.71 20.73-22.75" transform="translate(.11 .334)"/><path style="opacity:.87912;fill-rule:evenodd;fill:url(#p)" d="M267.97 82.951a232.999 232.999 0 0 0-7.44 4.219 103.31 103.31 0 0 0-6.31 4.062c4.82 15.108 16.11 38.568 21.78 46.218 5.73 7.73 27.06 31.94 41.25 45.16 2.29-2.43 4.36-4.62 6.31-6.63-9.44-16.14-25.95-40.01-30.44-46.81-4.78-7.25-14-34.064-25.15-46.219zm62.28 107-3.81.22c1.56 1 2.72 1.47 3.37 1.22.41-.16.54-.67.44-1.44z" transform="translate(.11 .334)"/><path style="stroke-linejoin:round;stroke:#000;stroke-width:.99921;fill:#784421" d="M354.82 188.62c-2.43-5.46-20.68-17.98-25.38-18.71 2.36-2 1.96-2.07 7.37-6.13 0 0-25.81 24.81-52.44 57.34-26.64 32.52-40.14 75.93-40.14 75.93-5.03-28.53 1.4-46 6.3-72.08 0 0-29.68 59.56-33.69 76.79s3.16 54.46 3.16 54.46-18.4-13-20.85-45.76c-2.45-32.77 6.56-64.25 13.57-80.4 7.01-16.14 22.53-34.18 22.53-34.18" transform="translate(.11 .334)"/></g><use xlink:href="#q" transform="matrix(-1 0 0 1 709.84 .073)" height="1052.362" width="744.094"/></g></svg>